<svg xmlns="http://www.w3.org/2000/svg" width="16" height="16.313" viewBox="0 0 16 16.313">
  <g id="Group_1878" data-name="Group 1878" transform="translate(-918 -480)">
    <path id="Path_1108" data-name="Path 1108" d="M18.725,250.641H5.383a.474.474,0,0,1-.474-.474v-7.653a.474.474,0,1,1,.948,0v7.179H18.252v-1.046a.474.474,0,1,1,.948,0v1.52A.474.474,0,0,1,18.725,250.641Z" transform="translate(913.091 245.672)" fill="#087139"/>
    <g id="Group_85" data-name="Group 85" transform="translate(918 480)">
      <path id="Path_1110" data-name="Path 1110" d="M20.436,6.517H19.2V.474A.474.474,0,0,0,18.726,0H10.314a.478.478,0,0,0-.061.008h0a.466.466,0,0,0-.058.016L10.18.031a.476.476,0,0,0-.055.024h0a.468.468,0,0,0-.052.033L10.058.1a.473.473,0,0,0-.048.041L5.047,5.157a.468.468,0,0,0-.031.035L5,5.217l-.009.012c-.007.01-.013.021-.019.032l0,.008c-.006.011-.011.022-.016.034l0,.008c0,.011-.008.022-.012.033l0,.011c0,.01-.005.021-.008.031l0,.014c0,.01,0,.019,0,.029s0,.011,0,.017,0,.019,0,.029,0,.011,0,.016v.153a.474.474,0,0,0,.474.474h4.964a.474.474,0,0,0,.474-.474V.948h7.431v5.57H11a.474.474,0,0,0-.474.474v5.214a.474.474,0,0,0,.474.474h9.433a.474.474,0,0,0,.474-.474V6.991A.474.474,0,0,0,20.436,6.517ZM6.369,5.169,9.874,1.627V5.169Zm13.593,6.562H11.477V7.465h8.485v4.266Z" transform="translate(-4.91)" fill="#087139"/>
      <path id="Path_1111" data-name="Path 1111" d="M225.1,262.823l-.512.87a.147.147,0,0,1-.13.056c-.151,0-.365-.119-.365-.27a.189.189,0,0,1,.032-.1l.607-.936-.582-.933a.2.2,0,0,1-.035-.109c0-.147.2-.26.354-.26a.171.171,0,0,1,.165.091l.466.814.466-.814a.171.171,0,0,1,.165-.091c.154,0,.354.112.354.26a.2.2,0,0,1-.035.109l-.582.933.607.936a.19.19,0,0,1,.032.1c0,.151-.214.27-.365.27a.143.143,0,0,1-.13-.056Z" transform="translate(-217.113 -252.823)" fill="#087139"/>
      <path id="Path_1112" data-name="Path 1112" d="M294.346,264.366c-.119,0-.239-.056-.239-.168v-2.231c0-.116.137-.165.274-.165s.274.049.274.165v1.922h.8c.105,0,.158.119.158.239s-.053.239-.158.239h-1.108Z" transform="translate(-284.894 -253.461)" fill="#087139"/>
      <path id="Path_1113" data-name="Path 1113" d="M345.588,263.04c0-.424-1.112-.351-1.112-1.171,0-.526.46-.726.9-.726.186,0,.7.035.7.309,0,.095-.063.288-.217.288-.126,0-.193-.133-.481-.133-.249,0-.351.1-.351.21,0,.351,1.112.284,1.112,1.168a.775.775,0,0,1-.877.779c-.459,0-.845-.225-.845-.456,0-.119.105-.295.239-.295.165,0,.27.26.6.26C345.409,263.271,345.588,263.208,345.588,263.04Z" transform="translate(-333.596 -252.822)" fill="#087139"/>
      <path id="Path_1114" data-name="Path 1114" d="M402.885,262.823l-.512.87a.148.148,0,0,1-.13.056c-.151,0-.365-.119-.365-.27a.189.189,0,0,1,.032-.1l.607-.936-.582-.933a.2.2,0,0,1-.035-.109c0-.147.2-.26.354-.26a.171.171,0,0,1,.165.091l.466.814.466-.814a.171.171,0,0,1,.165-.091c.154,0,.354.112.354.26a.2.2,0,0,1-.035.109l-.582.933.607.936a.191.191,0,0,1,.032.1c0,.151-.214.27-.365.27a.143.143,0,0,1-.13-.056Z" transform="translate(-389.23 -252.823)" fill="#087139"/>
    </g>
  </g>
</svg>
