<svg id="Group_236" data-name="Group 236" xmlns="http://www.w3.org/2000/svg" width="18.344" height="24.459" viewBox="0 0 18.344 24.459">
  <g id="Group_83" data-name="Group 83">
    <g id="Group_82" data-name="Group 82">
      <path id="Path_1106" data-name="Path 1106" d="M82.195,5.245,77.1.149A.509.509,0,0,0,76.739,0h-10.7A2.04,2.04,0,0,0,64,2.038V22.421a2.04,2.04,0,0,0,2.038,2.038H80.306a2.04,2.04,0,0,0,2.038-2.038V5.605A.509.509,0,0,0,82.195,5.245ZM77.249,1.74,80.6,5.1H78.268a1.02,1.02,0,0,1-1.019-1.019Zm4.077,20.681a1.02,1.02,0,0,1-1.019,1.019H66.038a1.02,1.02,0,0,1-1.019-1.019V2.038a1.02,1.02,0,0,1,1.019-1.019H76.229V4.076a2.04,2.04,0,0,0,2.038,2.038h3.057Z" transform="translate(-64 0)" fill="#d01d00"/>
      <path id="Path_1107" data-name="Path 1107" d="M136.713,177.472a14.766,14.766,0,0,1-1.219-1.051c-.388-.388-.734-.764-1.035-1.123a11.407,11.407,0,0,0,.674-2.594c0-1.691-.611-2.038-1.529-2.038-.7,0-1.529.362-1.529,2.087a4.886,4.886,0,0,0,1.242,2.756c-.2.617-.439,1.328-.706,2.129-.128.385-.268.741-.415,1.07-.12.053-.236.108-.349.164-.4.2-.79.385-1.146.554-1.627.77-2.7,1.28-2.7,2.286,0,.731.794,1.183,1.529,1.183.947,0,2.378-1.265,3.423-3.4a20.273,20.273,0,0,1,3.5-.943,5.846,5.846,0,0,0,2.251,1.283c1.263,0,1.529-.731,1.529-1.343,0-1.2-1.376-1.2-2.038-1.2A12.057,12.057,0,0,0,136.713,177.472Zm-7.184,4.4a.805.805,0,0,1-.51-.164c0-.361,1.077-.872,2.119-1.365l.2-.1C130.575,181.362,129.818,181.876,129.529,181.876Zm3.567-9.123c0-1.068.331-1.068.51-1.068.36,0,.51,0,.51,1.019a8.17,8.17,0,0,1-.406,1.591A3.131,3.131,0,0,1,133.1,172.753Zm.391,5.477q.048-.133.093-.269c.189-.567.359-1.077.511-1.536q.317.349.684.716c.1.1.332.311.648.58C134.793,177.858,134.125,178.027,133.486,178.23Zm5.724.265c0,.229,0,.324-.473.327a3.753,3.753,0,0,1-.856-.489c.144-.016.25-.024.31-.024C138.944,178.309,139.158,178.383,139.21,178.495Z" transform="translate(-124.943 -162.513)" fill="#d01d00"/>
    </g>
  </g>
</svg>
