<svg id="Group_234" data-name="Group 234" xmlns="http://www.w3.org/2000/svg" width="24.459" height="24.937" viewBox="0 0 24.459 24.937">
  <g id="Group_233" data-name="Group 233">
    <path id="Path_1108" data-name="Path 1108" d="M26.03,255.188H5.634a.724.724,0,0,1-.725-.724v-11.7a.725.725,0,1,1,1.449,0v10.975H25.305v-1.6a.725.725,0,1,1,1.449,0v2.324A.725.725,0,0,1,26.03,255.188Z" transform="translate(-4.909 -230.251)" fill="#087139"/>
    <g id="Group_85" data-name="Group 85" transform="translate(0)">
      <path id="Path_1110" data-name="Path 1110" d="M28.644,9.963H26.755V.725A.725.725,0,0,0,26.031,0H13.172a.731.731,0,0,0-.093.012h0a.713.713,0,0,0-.088.025l-.023.008a.728.728,0,0,0-.083.037h0a.715.715,0,0,0-.08.051L12.78.152a.723.723,0,0,0-.073.063L5.119,7.884a.716.716,0,0,0-.048.054c-.01.012-.019.025-.028.038l-.014.019c-.01.016-.02.032-.029.049l-.007.012c-.009.017-.017.034-.024.051l-.006.012c-.007.017-.012.034-.018.051l-.006.016c0,.016-.008.031-.012.047s0,.014-.005.022,0,.029-.007.044,0,.017,0,.026,0,.03,0,.044,0,.016,0,.024v.233a.725.725,0,0,0,.725.725h7.588a.725.725,0,0,0,.725-.725V1.449H25.306V9.963H14.225a.725.725,0,0,0-.725.725v7.97a.725.725,0,0,0,.725.725h14.42a.725.725,0,0,0,.725-.725v-7.97A.725.725,0,0,0,28.644,9.963ZM7.14,7.9,12.5,2.487V7.9ZM27.92,17.933H14.949V11.412H27.92v6.521Z" transform="translate(-4.91)" fill="#087139"/>
      <path id="Path_1111" data-name="Path 1111" d="M225.635,263.711l-.783,1.33a.225.225,0,0,1-.2.086c-.231,0-.558-.182-.558-.413a.289.289,0,0,1,.048-.15l.928-1.432-.89-1.426a.3.3,0,0,1-.054-.166c0-.225.306-.4.542-.4a.261.261,0,0,1,.252.139l.713,1.244.713-1.244a.261.261,0,0,1,.252-.139c.236,0,.542.172.542.4a.3.3,0,0,1-.054.166l-.89,1.426.928,1.432a.29.29,0,0,1,.048.15c0,.23-.327.413-.558.413a.219.219,0,0,1-.2-.086Z" transform="translate(-213.421 -248.424)" fill="#087139"/>
      <path id="Path_1112" data-name="Path 1112" d="M294.473,265.721c-.182,0-.365-.086-.365-.257v-3.41c0-.177.209-.252.418-.252s.418.075.418.252v2.938h1.222c.161,0,.241.182.241.365s-.08.365-.241.365h-1.694Z" transform="translate(-280.023 -249.051)" fill="#087139"/>
      <path id="Path_1113" data-name="Path 1113" d="M346.209,264.043c0-.649-1.7-.536-1.7-1.791,0-.8.7-1.11,1.373-1.11.284,0,1.067.054,1.067.472,0,.145-.1.44-.332.44-.193,0-.295-.2-.735-.2-.381,0-.536.155-.536.322,0,.536,1.7.434,1.7,1.786a1.184,1.184,0,0,1-1.341,1.19c-.7,0-1.292-.343-1.292-.7,0-.182.161-.45.365-.45.252,0,.413.4.911.4C345.936,264.4,346.209,264.3,346.209,264.043Z" transform="translate(-327.877 -248.423)" fill="#087139"/>
      <path id="Path_1114" data-name="Path 1114" d="M403.417,263.711l-.783,1.33a.226.226,0,0,1-.2.086c-.231,0-.558-.182-.558-.413a.289.289,0,0,1,.048-.15l.928-1.432-.89-1.426a.3.3,0,0,1-.054-.166c0-.225.306-.4.542-.4a.261.261,0,0,1,.252.139l.713,1.244.713-1.244a.261.261,0,0,1,.252-.139c.236,0,.542.172.542.4a.3.3,0,0,1-.054.166l-.89,1.426.928,1.432a.292.292,0,0,1,.048.15c0,.23-.327.413-.558.413a.219.219,0,0,1-.2-.086Z" transform="translate(-382.544 -248.424)" fill="#087139"/>
    </g>
  </g>
</svg>
