<svg xmlns="http://www.w3.org/2000/svg" width="16" height="16.312" viewBox="0 0 16 16.312">
  <g id="Group_1932" data-name="Group 1932" transform="translate(-939 -480)">
    <path id="Path_1115" data-name="Path 1115" d="M18.726,250.641H5.384a.474.474,0,0,1-.474-.474v-7.653a.474.474,0,0,1,.948,0v7.179H18.252v-1.046a.474.474,0,0,1,.948,0v1.52A.474.474,0,0,1,18.726,250.641Z" transform="translate(934.09 245.671)" fill="#d85e2e"/>
    <g id="Group_87" data-name="Group 87" transform="translate(939 480)">
      <path id="Path_1117" data-name="Path 1117" d="M20.434,6.517H19.2V.474A.474.474,0,0,0,18.724,0H10.312a.481.481,0,0,0-.061.008h0a.473.473,0,0,0-.058.016l-.015.005a.475.475,0,0,0-.055.024h0a.473.473,0,0,0-.052.033L10.057.1a.478.478,0,0,0-.048.042L5.045,5.157a.468.468,0,0,0-.031.035L5,5.217l-.009.012c-.007.01-.013.021-.019.032l0,.008c-.006.011-.011.022-.016.033l0,.008c0,.011-.008.022-.012.033l0,.011c0,.01-.005.02-.008.03l0,.015c0,.009,0,.019,0,.028s0,.012,0,.018,0,.018,0,.027,0,.012,0,.017v.153a.474.474,0,0,0,.474.474h4.964a.474.474,0,0,0,.474-.474V.948h7.431v5.57H11a.474.474,0,0,0-.474.474v5.214a.474.474,0,0,0,.474.474h9.433a.474.474,0,0,0,.474-.474V6.991A.474.474,0,0,0,20.434,6.517ZM9.872,5.169H6.367L8.16,3.357l1.712-1.73V5.169ZM19.96,11.731H11.475V7.465H19.96Z" transform="translate(-4.908)" fill="#d85e2e"/>
      <path id="Path_1118" data-name="Path 1118" d="M248.835,254.1a.208.208,0,0,1,.231-.187h.824a.836.836,0,0,1,.94.916v.02a.861.861,0,0,1-.979.924h-.394v.86c0,.127-.155.191-.311.191s-.311-.064-.311-.191Zm.621.354v.84h.394c.223,0,.358-.127.358-.4v-.044c0-.271-.135-.4-.358-.4Z" transform="translate(-241.063 -245.821)" fill="#d85e2e"/>
      <path id="Path_1119" data-name="Path 1119" d="M319.935,254.1a.208.208,0,0,1,.231-.187h.824a.836.836,0,0,1,.94.916v.02a.861.861,0,0,1-.979.924h-.394v.86c0,.127-.155.191-.311.191s-.311-.064-.311-.191V254.1Zm.621.354v.84h.394c.223,0,.358-.127.358-.4v-.044c0-.271-.135-.4-.358-.4Z" transform="translate(-309.898 -245.821)" fill="#d85e2e"/>
      <path id="Path_1120" data-name="Path 1120" d="M387.19,253.911c.131,0,.187.143.187.275,0,.151-.068.283-.187.283h-.549v2.162c0,.127-.155.191-.311.191s-.311-.064-.311-.191v-2.162h-.549c-.119,0-.187-.131-.187-.283,0-.131.056-.275.187-.275Z" transform="translate(-373.164 -245.821)" fill="#d85e2e"/>
    </g>
  </g>
</svg>
