<svg xmlns="http://www.w3.org/2000/svg" width="18" height="16.311" viewBox="0 0 18 16.311">
  <path id="Path_1123" data-name="Path 1123" d="M17.346,7.2h-.321A8.156,8.156,0,0,0,3.233,2.889,8.1,8.1,0,0,0,.969,7.231H.654A.654.654,0,0,0,0,7.885V10.26a.654.654,0,0,0,.654.654h.51a8.154,8.154,0,0,0,2.525,3.931.264.264,0,0,0,.344-.4,7.644,7.644,0,0,1-.87-.879,10.124,10.124,0,0,1,1.231-.425,8.751,8.751,0,0,0,.664,1,10.292,10.292,0,0,0,1.792,1.831A7.564,7.564,0,0,1,5.3,15.328a.264.264,0,0,0-.256.462,8.163,8.163,0,0,0,11.791-4.864h.51A.654.654,0,0,0,18,10.272V7.849a.654.654,0,0,0-.654-.654Zm-.859,0H14.652c-.022-.137-.046-.274-.075-.41a9.3,9.3,0,0,0-.731-2.162l.146-.04a10.063,10.063,0,0,0,1.184-.407A7.544,7.544,0,0,1,16.488,7.2Zm-2.365.035H11.4c-.009-.132-.019-.265-.031-.4-.052-.591-.13-1.162-.229-1.709a17.087,17.087,0,0,0,2.188-.368,8.766,8.766,0,0,1,.736,2.136c.023.113.044.225.062.338Zm.271-3.968q.233.233.443.483a10.188,10.188,0,0,1-.991.33l-.249.069a9.274,9.274,0,0,0-.551-.871,9.067,9.067,0,0,0-1.862-1.929,7.589,7.589,0,0,1,3.21,1.918ZM9.814,1.072a8.58,8.58,0,0,1,2.8,2.508q.241.338.448.7a16.689,16.689,0,0,1-2.032.33A10.858,10.858,0,0,0,9.684,1.059l.13.012ZM9,1.029h.019A9.475,9.475,0,0,1,10.5,4.651q-.846.061-1.732.049c-.4-.006-.83-.018-1.276-.045A9.479,9.479,0,0,1,8.981,1.029H9Zm-.684.031a10.867,10.867,0,0,0-1.35,3.556A15.144,15.144,0,0,1,4.919,4.3q.214-.372.465-.725a8.583,8.583,0,0,1,2.8-2.508l.13-.012ZM6.863,5.136c-.1.543-.175,1.111-.227,1.7-.012.132-.022.264-.03.4H3.877c.019-.113.039-.226.063-.338a8.772,8.772,0,0,1,.722-2.106,15.354,15.354,0,0,0,2.2.35ZM3.607,3.263a7.589,7.589,0,0,1,3.21-1.918A9.06,9.06,0,0,0,4.954,3.273a9.231,9.231,0,0,0-.566.9,10.1,10.1,0,0,1-1.227-.424q.211-.25.445-.484Zm-.782.914a10.466,10.466,0,0,0,1.317.473,9.3,9.3,0,0,0-.719,2.136q-.046.222-.08.445H1.506A7.544,7.544,0,0,1,2.824,4.177ZM.654,10.386a.126.126,0,0,1-.126-.126V7.884a.126.126,0,0,1,.126-.126H8.273a.264.264,0,1,0,0-.528H7.134c.008-.117.017-.234.027-.35.052-.591.13-1.161.23-1.7.481.031.943.045,1.373.051l.311,0q.781,0,1.532-.057c.1.544.178,1.116.23,1.708q.015.175.028.35H9.921a.264.264,0,1,0,0,.528h4.094v2.627H.654Zm13.3.528a8.4,8.4,0,0,1-.629,1.641,17.1,17.1,0,0,0-2.184-.368c.076-.413.138-.838.186-1.273h2.627Zm-3.158,0c-.048.419-.109.829-.183,1.226q-.9-.068-1.846-.055c-.431.006-.893.02-1.375.051-.074-.4-.135-.8-.182-1.222ZM2.826,13.135a7.621,7.621,0,0,1-1.112-2.221H3.5a8.947,8.947,0,0,0,.638,1.749A10.451,10.451,0,0,0,2.826,13.135Zm1.223-2.221H6.676c.048.431.109.853.184,1.263a15.354,15.354,0,0,0-2.2.349,8.4,8.4,0,0,1-.614-1.612Zm4.134,5.325a9.128,9.128,0,0,1-2.707-2.415,8.2,8.2,0,0,1-.55-.817A15.162,15.162,0,0,1,6.964,12.7a13.588,13.588,0,0,0,.371,1.37,10.322,10.322,0,0,0,.985,2.186l-.136-.014ZM9,16.284H8.981A8.5,8.5,0,0,1,7.836,13.9c-.13-.392-.243-.809-.34-1.243.446-.027.875-.04,1.276-.045q.886-.013,1.732.049c-.1.433-.21.849-.339,1.24a8.5,8.5,0,0,1-1.145,2.382H9Zm.68-.03a10.306,10.306,0,0,0,.985-2.187,13.5,13.5,0,0,0,.368-1.36,16.688,16.688,0,0,1,2.023.328,8.189,8.189,0,0,1-.533.788,9.128,9.128,0,0,1-2.71,2.417l-.134.013Zm4.713-2.2a7.587,7.587,0,0,1-3.247,1.929,10.29,10.29,0,0,0,1.8-1.834,8.72,8.72,0,0,0,.648-.978l.255.07a10.227,10.227,0,0,1,.99.33c-.14.166-.287.328-.443.483Zm.781-.914a10.072,10.072,0,0,0-1.183-.406l-.146-.04a8.944,8.944,0,0,0,.647-1.763h1.791a7.543,7.543,0,0,1-1.11,2.21Zm2.3-2.875a.126.126,0,0,1-.126.126h-2.8V7.759h2.8a.126.126,0,0,1,.126.126Zm0,0" transform="translate(0 -0.501)" fill="#6d6d6d"/>
</svg>
