<svg xmlns="http://www.w3.org/2000/svg" width="15.998" height="16.311" viewBox="0 0 15.998 16.311">
  <g id="Group_1931" data-name="Group 1931" transform="translate(-897 -480)">
    <path id="Path_1159" data-name="Path 1159" d="M18.725,250.64H5.384a.474.474,0,0,1-.474-.474v-7.652a.474.474,0,0,1,.948,0v7.178H18.251v-1.046a.474.474,0,1,1,.948,0v1.52A.474.474,0,0,1,18.725,250.64Z" transform="translate(892.09 245.671)" fill="#226fb5"/>
    <g id="Group_207" data-name="Group 207" transform="translate(897 480)">
      <path id="Path_1161" data-name="Path 1161" d="M20.432,6.517H19.2V.474A.474.474,0,0,0,18.723,0H10.312a.481.481,0,0,0-.061.008h0a.468.468,0,0,0-.058.016l-.015.005a.474.474,0,0,0-.055.024h0a.466.466,0,0,0-.052.033L10.056.1a.478.478,0,0,0-.048.042L5.045,5.157a.468.468,0,0,0-.031.035L5,5.217l-.009.012c-.007.01-.013.021-.019.032l0,.008c-.006.011-.011.022-.016.033l0,.008c0,.011-.008.022-.012.033l0,.011c0,.01-.005.02-.008.03l0,.015c0,.009,0,.019,0,.028s0,.012,0,.018,0,.018,0,.027,0,.012,0,.017v.153a.474.474,0,0,0,.474.474h4.963a.474.474,0,0,0,.474-.474V.948h7.43V6.517H11a.474.474,0,0,0-.474.474V12.2a.474.474,0,0,0,.474.474h9.431a.474.474,0,0,0,.474-.474V6.99A.474.474,0,0,0,20.432,6.517ZM9.871,5.169h-3.5L8.16,3.356,9.871,1.627V5.169ZM19.958,11.73H11.474V7.464h8.484Z" transform="translate(-4.908)" fill="#226fb5"/>
      <path id="Path_1162" data-name="Path 1162" d="M245.346,253.911a.865.865,0,0,1,.979.939v1.031a.865.865,0,0,1-.979.939h-.7c-.163,0-.271-.088-.271-.187V254.1c0-.1.107-.187.271-.187Zm-.354.541v1.827h.354c.223,0,.358-.127.358-.4V254.85c0-.271-.135-.4-.358-.4Z" transform="translate(-236.743 -245.822)" fill="#226fb5"/>
      <path id="Path_1163" data-name="Path 1163" d="M317.093,255.905V254.85a.978.978,0,0,1,1.955,0v1.055a.978.978,0,0,1-1.955,0Zm1.334-1.055c0-.275-.135-.4-.358-.4s-.354.123-.354.4v1.055c0,.275.131.4.354.4s.358-.123.358-.4Z" transform="translate(-307.148 -245.822)" fill="#226fb5"/>
      <path id="Path_1164" data-name="Path 1164" d="M390.925,254.453c-.227,0-.358.127-.358.4v1.055c0,.271.131.4.362.4.318,0,.338-.243.35-.4s.147-.187.307-.187c.215,0,.315.056.315.295,0,.529-.43.832-1,.832a.859.859,0,0,1-.955-.939v-1.055a.859.859,0,0,1,.955-.939c.569,0,1,.287,1,.792,0,.239-.1.295-.311.295-.167,0-.3-.044-.31-.187A.321.321,0,0,0,390.925,254.453Z" transform="translate(-377.68 -245.823)" fill="#226fb5"/>
    </g>
  </g>
</svg>
