<svg id="calendar" xmlns="http://www.w3.org/2000/svg" width="20.502" height="18.5" viewBox="0 0 20.502 18.5">
  <path id="Path_1167" data-name="Path 1167" d="M98.882,249H97.6a.6.6,0,1,0,0,1.2h1.281a.6.6,0,1,0,0-1.2Z" transform="translate(-93.116 -240.03)"/>
  <path id="Path_1168" data-name="Path 1168" d="M98.882,313H97.6a.6.6,0,1,0,0,1.2h1.281a.6.6,0,1,0,0-1.2Z" transform="translate(-93.116 -301.468)"/>
  <path id="Path_1169" data-name="Path 1169" d="M98.882,377H97.6a.6.6,0,0,0,0,1.2h1.281a.6.6,0,0,0,0-1.2Z" transform="translate(-93.116 -362.905)"/>
  <path id="Path_1170" data-name="Path 1170" d="M226.882,249H225.6a.6.6,0,0,0,0,1.2h1.281a.6.6,0,1,0,0-1.2Z" transform="translate(-215.99 -240.03)"/>
  <path id="Path_1171" data-name="Path 1171" d="M226.882,313H225.6a.6.6,0,1,0,0,1.2h1.281a.6.6,0,0,0,0-1.2Z" transform="translate(-215.99 -301.468)"/>
  <path id="Path_1172" data-name="Path 1172" d="M226.882,377H225.6a.6.6,0,1,0,0,1.2h1.281a.6.6,0,0,0,0-1.2Z" transform="translate(-215.99 -362.905)"/>
  <path id="Path_1173" data-name="Path 1173" d="M354.882,249H353.6a.6.6,0,1,0,0,1.2h1.281a.6.6,0,1,0,0-1.2Z" transform="translate(-338.865 -240.03)"/>
  <path id="Path_1174" data-name="Path 1174" d="M354.882,313H353.6a.6.6,0,1,0,0,1.2h1.281a.6.6,0,1,0,0-1.2Z" transform="translate(-338.865 -301.468)"/>
  <path id="Path_1175" data-name="Path 1175" d="M354.882,377H353.6a.6.6,0,1,0,0,1.2h1.281a.6.6,0,1,0,0-1.2Z" transform="translate(-338.865 -362.905)"/>
  <path id="Path_1176" data-name="Path 1176" d="M18.7,26.6H17.259v-1a.6.6,0,1,0-1.2,0v1H10.852v-1a.6.6,0,1,0-1.2,0v1H4.445v-1a.6.6,0,1,0-1.2,0v1H1.8A1.8,1.8,0,0,0,0,28.4V41.7a1.8,1.8,0,0,0,1.8,1.8H18.7a1.8,1.8,0,0,0,1.8-1.8V28.4A1.8,1.8,0,0,0,18.7,26.6ZM1.2,28.4a.6.6,0,0,1,.6-.6H3.244v1a.6.6,0,0,0,1.2,0v-1H9.65v1a.6.6,0,0,0,1.2,0v-1h5.206v1a.6.6,0,1,0,1.2,0v-1H18.7a.6.6,0,0,1,.6.6v2.363H1.2ZM18.7,42.3H1.8a.6.6,0,0,1-.6-.6V31.968H19.3V41.7A.6.6,0,0,1,18.7,42.3Z" transform="translate(0 -25)"/>
</svg>
