<svg xmlns="http://www.w3.org/2000/svg" width="18" height="16.311" viewBox="0 0 18 16.311">
  <g id="Group_1933" data-name="Group 1933" transform="translate(-721.995 -480)">
    <path id="Path_1123" data-name="Path 1123" d="M17.346,7.2h-.321A8.156,8.156,0,0,0,3.233,2.889,8.1,8.1,0,0,0,.969,7.231H.654A.654.654,0,0,0,0,7.885V10.26a.654.654,0,0,0,.654.654h.51a8.154,8.154,0,0,0,2.525,3.931.264.264,0,0,0,.344-.4,7.644,7.644,0,0,1-.87-.879,10.124,10.124,0,0,1,1.231-.425,8.751,8.751,0,0,0,.664,1,10.292,10.292,0,0,0,1.792,1.831A7.564,7.564,0,0,1,5.3,15.328a.264.264,0,0,0-.256.462,8.163,8.163,0,0,0,11.791-4.864h.51A.654.654,0,0,0,18,10.272V7.849a.654.654,0,0,0-.654-.654Zm-.859,0H14.652c-.022-.137-.046-.274-.075-.41a9.3,9.3,0,0,0-.731-2.162l.146-.04a10.063,10.063,0,0,0,1.184-.407A7.544,7.544,0,0,1,16.488,7.2Zm-2.365.035H11.4c-.009-.132-.019-.265-.031-.4-.052-.591-.13-1.162-.229-1.709a17.087,17.087,0,0,0,2.188-.368,8.766,8.766,0,0,1,.736,2.136c.023.113.044.225.062.338Zm.271-3.968q.233.233.443.483a10.188,10.188,0,0,1-.991.33l-.249.069a9.274,9.274,0,0,0-.551-.871,9.067,9.067,0,0,0-1.862-1.929,7.589,7.589,0,0,1,3.21,1.918ZM9.814,1.072a8.58,8.58,0,0,1,2.8,2.508q.241.338.448.7a16.689,16.689,0,0,1-2.032.33A10.858,10.858,0,0,0,9.684,1.059l.13.012ZM9,1.029h.019A9.475,9.475,0,0,1,10.5,4.651q-.846.061-1.732.049c-.4-.006-.83-.018-1.276-.045A9.479,9.479,0,0,1,8.981,1.029H9Zm-.684.031a10.867,10.867,0,0,0-1.35,3.556A15.144,15.144,0,0,1,4.919,4.3q.214-.372.465-.725a8.583,8.583,0,0,1,2.8-2.508l.13-.012ZM6.863,5.136c-.1.543-.175,1.111-.227,1.7-.012.132-.022.264-.03.4H3.877c.019-.113.039-.226.063-.338a8.772,8.772,0,0,1,.722-2.106,15.354,15.354,0,0,0,2.2.35ZM3.607,3.263a7.589,7.589,0,0,1,3.21-1.918A9.06,9.06,0,0,0,4.954,3.273a9.231,9.231,0,0,0-.566.9,10.1,10.1,0,0,1-1.227-.424q.211-.25.445-.484Zm-.782.914a10.466,10.466,0,0,0,1.317.473,9.3,9.3,0,0,0-.719,2.136q-.046.222-.08.445H1.506A7.544,7.544,0,0,1,2.824,4.177ZM.654,10.386a.126.126,0,0,1-.126-.126V7.884a.126.126,0,0,1,.126-.126H8.273a.264.264,0,1,0,0-.528H7.134c.008-.117.017-.234.027-.35.052-.591.13-1.161.23-1.7.481.031.943.045,1.373.051l.311,0q.781,0,1.532-.057c.1.544.178,1.116.23,1.708q.015.175.028.35H9.921a.264.264,0,1,0,0,.528h4.094v2.627H.654Zm13.3.528a8.4,8.4,0,0,1-.629,1.641,17.1,17.1,0,0,0-2.184-.368c.076-.413.138-.838.186-1.273h2.627Zm-3.158,0c-.048.419-.109.829-.183,1.226q-.9-.068-1.846-.055c-.431.006-.893.02-1.375.051-.074-.4-.135-.8-.182-1.222ZM2.826,13.135a7.621,7.621,0,0,1-1.112-2.221H3.5a8.947,8.947,0,0,0,.638,1.749A10.451,10.451,0,0,0,2.826,13.135Zm1.223-2.221H6.676c.048.431.109.853.184,1.263a15.354,15.354,0,0,0-2.2.349,8.4,8.4,0,0,1-.614-1.612Zm4.134,5.325a9.128,9.128,0,0,1-2.707-2.415,8.2,8.2,0,0,1-.55-.817A15.162,15.162,0,0,1,6.964,12.7a13.588,13.588,0,0,0,.371,1.37,10.322,10.322,0,0,0,.985,2.186l-.136-.014ZM9,16.284H8.981A8.5,8.5,0,0,1,7.836,13.9c-.13-.392-.243-.809-.34-1.243.446-.027.875-.04,1.276-.045q.886-.013,1.732.049c-.1.433-.21.849-.339,1.24a8.5,8.5,0,0,1-1.145,2.382H9Zm.68-.03a10.306,10.306,0,0,0,.985-2.187,13.5,13.5,0,0,0,.368-1.36,16.688,16.688,0,0,1,2.023.328,8.189,8.189,0,0,1-.533.788,9.128,9.128,0,0,1-2.71,2.417l-.134.013Zm4.713-2.2a7.587,7.587,0,0,1-3.247,1.929,10.29,10.29,0,0,0,1.8-1.834,8.72,8.72,0,0,0,.648-.978l.255.07a10.227,10.227,0,0,1,.99.33c-.14.166-.287.328-.443.483Zm.781-.914a10.072,10.072,0,0,0-1.183-.406l-.146-.04a8.944,8.944,0,0,0,.647-1.763h1.791a7.543,7.543,0,0,1-1.11,2.21Zm2.3-2.875a.126.126,0,0,1-.126.126h-2.8V7.759h2.8a.126.126,0,0,1,.126.126Zm0,0" transform="translate(721.995 479.499)" fill="#5cd79e"/>
    <path id="Path_1124" data-name="Path 1124" d="M49.908,220.777c0,.039-.059.08-.127.08s-.125-.041-.125-.08v-1.309c0-.047.051-.078.125-.078s.127.031.127.078v.6a.267.267,0,0,1,.246-.148.375.375,0,0,1,.335.4v.462c0,.053-.064.08-.127.08s-.125-.027-.125-.08v-.462a.18.18,0,0,0-.17-.175.166.166,0,0,0-.16.175v.462Zm0,0" transform="translate(674.085 268.305)" fill="#5cd79e"/>
    <path id="Path_1125" data-name="Path 1125" d="M82.2,224.024c0,.076.027.1.109.1h.076a.106.106,0,1,1,0,.213H82.31c-.234,0-.361-.1-.361-.316v-.946c0-.047.066-.078.125-.078s.127.031.127.078v.335h.23c.041,0,.064.047.064.092s-.023.092-.064.092H82.2v.427Zm0,0" transform="translate(642.927 264.822)" fill="#5cd79e"/>
    <path id="Path_1126" data-name="Path 1126" d="M104.779,224.024c0,.076.027.1.109.1h.076a.106.106,0,1,1,0,.213h-.076c-.234,0-.361-.1-.361-.316v-.946c0-.047.066-.078.125-.078s.127.031.127.078v.335h.23c.041,0,.064.047.064.092s-.023.092-.064.092h-.23Zm0,0" transform="translate(621.143 264.822)" fill="#5cd79e"/>
    <path id="Path_1127" data-name="Path 1127" d="M127.455,234.516v.058a.307.307,0,0,1,.263-.148.375.375,0,0,1,.349.4v.16a.387.387,0,0,1-.341.4.29.29,0,0,1-.255-.154v.488c0,.041-.059.08-.129.08s-.123-.039-.123-.08v-1.2c0-.047.053-.078.119-.078S127.455,234.469,127.455,234.516Zm.361.306a.183.183,0,0,0-.177-.176.171.171,0,0,0-.168.176v.2a.19.19,0,0,0,.172.144.186.186,0,0,0,.174-.179Zm0,0" transform="translate(599.249 253.798)" fill="#5cd79e"/>
    <path id="Path_1128" data-name="Path 1128" d="M158.279,235.106c0-.172-.462-.064-.462-.39,0-.138.088-.291.349-.291.158,0,.31.055.31.127,0,.035-.033.121-.092.121s-.107-.057-.214-.057-.137.049-.137.088c0,.142.468.045.468.392,0,.174-.129.285-.359.285-.2,0-.353-.082-.353-.168,0-.041.035-.111.084-.111s.1.088.263.088C158.251,235.19,158.279,235.145,158.279,235.106Zm0,0" transform="translate(569.753 253.798)" fill="#5cd79e"/>
    <path id="Path_1129" data-name="Path 1129" d="M185.513,237.832a.135.135,0,0,1-.131.133.133.133,0,1,1,.131-.133Zm0,.569a.135.135,0,0,1-.131.133.133.133,0,1,1,.131-.133Zm0,0" transform="translate(543.258 250.64)" fill="#5cd79e"/>
    <path id="Path_1130" data-name="Path 1130" d="M200.327,218.428a.076.076,0,0,1-.008.035l-.7,1.416a.085.085,0,0,1-.076.043.091.091,0,0,1-.094-.086.067.067,0,0,1,.01-.033l.7-1.422a.076.076,0,0,1,.07-.041A.1.1,0,0,1,200.327,218.428Zm0,0" transform="translate(529.558 269.318)" fill="#5cd79e"/>
    <path id="Path_1131" data-name="Path 1131" d="M217.085,218.428a.078.078,0,0,1-.008.035l-.7,1.416a.084.084,0,0,1-.076.043.091.091,0,0,1-.094-.086.065.065,0,0,1,.01-.033l.7-1.422a.076.076,0,0,1,.07-.041A.1.1,0,0,1,217.085,218.428Zm0,0" transform="translate(513.389 269.318)" fill="#5cd79e"/>
    <path id="Path_1132" data-name="Path 1132" d="M245.352,235.393c-.014.033-.057.045-.1.045s-.092-.016-.1-.045l-.15-.425-.148.423c-.012.031-.059.047-.107.047a.1.1,0,0,1-.1-.047l-.3-.77a.08.08,0,0,1-.01-.037c0-.06.1-.1.164-.1a.071.071,0,0,1,.072.041l.2.554.146-.482c.014-.045.047-.051.086-.051s.072.006.086.051l.144.484.2-.556a.073.073,0,0,1,.072-.041c.062,0,.162.043.162.105a.071.071,0,0,1-.008.035Zm0,0" transform="translate(486.249 253.746)" fill="#5cd79e"/>
    <path id="Path_1133" data-name="Path 1133" d="M287.126,235.393c-.014.033-.056.045-.1.045s-.092-.016-.1-.045l-.15-.425-.148.423c-.012.031-.058.047-.107.047a.1.1,0,0,1-.1-.047l-.3-.77a.081.081,0,0,1-.01-.037c0-.06.1-.1.164-.1a.072.072,0,0,1,.072.041l.195.554.146-.482c.014-.045.047-.051.086-.051s.072.006.086.051l.144.484.2-.556a.072.072,0,0,1,.072-.041c.063,0,.162.043.162.105a.071.071,0,0,1-.008.035Zm0,0" transform="translate(445.943 253.746)" fill="#5cd79e"/>
    <path id="Path_1134" data-name="Path 1134" d="M328.9,235.393c-.014.033-.057.045-.1.045s-.092-.016-.1-.045l-.15-.425-.148.423c-.012.031-.058.047-.107.047a.1.1,0,0,1-.1-.047l-.3-.77a.082.082,0,0,1-.01-.037c0-.06.1-.1.164-.1a.072.072,0,0,1,.072.041l.2.554.146-.482c.014-.045.047-.051.086-.051s.072.006.086.051l.144.484.2-.556a.072.072,0,0,1,.072-.041c.062,0,.162.043.162.105a.071.071,0,0,1-.008.035Zm0,0" transform="translate(405.636 253.746)" fill="#5cd79e"/>
    <path id="Path_1135" data-name="Path 1135" d="M425.72,214.028l-.285-.041-.127-.258a.4.4,0,0,0-.71,0l-.127.258-.285.041a.4.4,0,0,0-.22.675l.206.2-.049.284a.4.4,0,0,0,.574.417l.255-.134.255.134a.394.394,0,0,0,.417-.03.393.393,0,0,0,.158-.387l-.049-.284.206-.2a.4.4,0,0,0-.219-.675Zm-.4.547a.4.4,0,0,0-.114.351l.015.089-.08-.042a.4.4,0,0,0-.369,0l-.079.042.015-.089a.4.4,0,0,0-.114-.351l-.064-.063.089-.013a.4.4,0,0,0,.3-.217l.04-.081.04.081a.4.4,0,0,0,.3.217l.089.013Zm0,0" transform="translate(313.05 273.98)" fill="#5cd79e"/>
  </g>
</svg>
