<svg id="Group_83" data-name="Group 83" xmlns="http://www.w3.org/2000/svg" width="16" height="16" viewBox="0 0 16 16">
  <g id="Group_82" data-name="Group 82" transform="translate(0)">
    <path id="Path_1106" data-name="Path 1106" d="M79.87,3.431,75.425.1a.528.528,0,0,0-.314-.1H65.778C64.8,0,64,.6,64,1.333V14.667C64,15.4,64.8,16,65.778,16H78.222C79.2,16,80,15.4,80,14.667v-11A.3.3,0,0,0,79.87,3.431ZM75.556,1.138l2.927,2.2H76.444c-.49,0-.889-.3-.889-.667Zm3.556,13.529c0,.368-.4.667-.889.667H65.778c-.49,0-.889-.3-.889-.667V1.333c0-.368.4-.667.889-.667h8.889v2c0,.735.8,1.333,1.778,1.333h2.667Z" transform="translate(-64 0)" fill="#d01d00"/>
    <path id="Path_1107" data-name="Path 1107" d="M135.6,175.118a12.578,12.578,0,0,1-1.063-.688c-.339-.254-.64-.5-.9-.734a5.988,5.988,0,0,0,.588-1.7c0-1.106-.533-1.333-1.333-1.333a1.208,1.208,0,0,0-1.333,1.365,2.875,2.875,0,0,0,1.083,1.8c-.176.4-.383.868-.616,1.393a6.62,6.62,0,0,1-.362.7c-.1.035-.206.07-.3.107-.353.133-.689.252-1,.362-1.419.5-2.357.837-2.357,1.5,0,.478.692.774,1.333.774a4.4,4.4,0,0,0,2.986-2.222,22.52,22.52,0,0,1,3.051-.617,5.76,5.76,0,0,0,1.964.84c1.1,0,1.333-.478,1.333-.879,0-.788-1.2-.788-1.778-.788C136.71,175,136.229,175.039,135.6,175.118ZM129.333,178a.855.855,0,0,1-.444-.107c0-.236.94-.57,1.849-.893l.176-.062A3.058,3.058,0,0,1,129.333,178Zm3.111-5.968c0-.7.289-.7.444-.7.314,0,.444,0,.444.667a4.281,4.281,0,0,1-.354,1.041A1.783,1.783,0,0,1,132.444,172.031Zm.341,3.583q.042-.087.081-.176c.165-.371.313-.7.446-1q.277.229.6.468c.083.063.29.2.565.379C133.925,175.37,133.342,175.481,132.785,175.614Zm4.993.173c0,.15,0,.212-.412.214a3.7,3.7,0,0,1-.747-.32c.125-.01.218-.016.27-.016C137.546,175.666,137.732,175.714,137.778,175.787Z" transform="translate(-125.333 -165.333)" fill="#d01d00"/>
  </g>
</svg>
