<svg id="Group_235" data-name="Group 235" xmlns="http://www.w3.org/2000/svg" width="24.456" height="24.935" viewBox="0 0 24.456 24.935">
  <path id="Path_1159" data-name="Path 1159" d="M26.028,255.187H5.634a.725.725,0,0,1-.724-.724v-11.7a.724.724,0,0,1,1.449,0v10.973H25.3v-1.6a.724.724,0,0,1,1.449,0v2.323A.725.725,0,0,1,26.028,255.187Z" transform="translate(-4.91 -230.251)" fill="#226fb5"/>
  <g id="Group_207" data-name="Group 207" transform="translate(0)">
    <path id="Path_1161" data-name="Path 1161" d="M28.639,9.962H26.75V.724A.724.724,0,0,0,26.026,0H13.169a.736.736,0,0,0-.093.012h0a.715.715,0,0,0-.089.025l-.022.008a.724.724,0,0,0-.084.037h0a.712.712,0,0,0-.08.051l-.019.014A.731.731,0,0,0,12.7.215L5.118,7.883a.716.716,0,0,0-.048.054c-.01.012-.019.025-.028.038l-.014.019c-.01.016-.02.032-.029.048l-.007.012c-.009.017-.017.034-.024.051l-.006.013c-.007.016-.012.033-.018.05l-.006.017c0,.015-.008.031-.012.046s0,.015-.005.022,0,.029-.006.043,0,.018,0,.027,0,.028,0,.042,0,.018,0,.027v.233a.724.724,0,0,0,.724.724h7.587a.724.724,0,0,0,.724-.724V1.449H25.3V9.962H14.221a.724.724,0,0,0-.724.724v7.969a.724.724,0,0,0,.724.724H28.639a.724.724,0,0,0,.724-.724V10.686A.724.724,0,0,0,28.639,9.962ZM12.5,7.9H7.138L9.879,5.13,12.5,2.487V7.9Zm15.42,10.03H14.946v-6.52H27.915Z" transform="translate(-4.908)" fill="#226fb5"/>
    <path id="Path_1162" data-name="Path 1162" d="M245.862,253.911a1.323,1.323,0,0,1,1.5,1.436v1.576a1.323,1.323,0,0,1-1.5,1.436h-1.077c-.25,0-.414-.134-.414-.286V254.2c0-.152.164-.286.414-.286Zm-.542.828v2.793h.542c.341,0,.548-.195.548-.608v-1.576c0-.414-.207-.609-.548-.609Z" transform="translate(-232.71 -241.546)" fill="#226fb5"/>
    <path id="Path_1163" data-name="Path 1163" d="M317.093,256.96v-1.613a1.5,1.5,0,0,1,2.988,0v1.613a1.5,1.5,0,0,1-2.988,0Zm2.039-1.613c0-.42-.207-.609-.548-.609s-.542.189-.542.609v1.613c0,.42.2.608.542.608s.548-.189.548-.608Z" transform="translate(-301.89 -241.546)" fill="#226fb5"/>
    <path id="Path_1164" data-name="Path 1164" d="M391.443,254.74c-.347,0-.548.195-.548.609v1.613c0,.414.2.609.554.609.487,0,.517-.371.536-.609s.225-.286.469-.286c.329,0,.481.085.481.45,0,.809-.657,1.272-1.527,1.272a1.314,1.314,0,0,1-1.46-1.436v-1.613a1.314,1.314,0,0,1,1.46-1.436c.87,0,1.527.438,1.527,1.211,0,.365-.152.45-.475.45-.256,0-.462-.067-.475-.286A.49.49,0,0,0,391.443,254.74Z" transform="translate(-371.195 -241.547)" fill="#226fb5"/>
  </g>
</svg>
