<svg id="Group_232" data-name="Group 232" xmlns="http://www.w3.org/2000/svg" width="24.459" height="24.937" viewBox="0 0 24.459 24.937">
  <path id="Path_1115" data-name="Path 1115" d="M26.031,255.188H5.635a.725.725,0,0,1-.725-.724v-11.7a.725.725,0,0,1,1.449,0v10.975H25.306v-1.6a.725.725,0,0,1,1.449,0v2.324A.725.725,0,0,1,26.031,255.188Z" transform="translate(-4.91 -230.251)" fill="#d85e2e"/>
  <g id="Group_87" data-name="Group 87" transform="translate(0)">
    <path id="Path_1117" data-name="Path 1117" d="M28.642,9.963H26.753V.725A.725.725,0,0,0,26.029,0H13.17a.735.735,0,0,0-.093.012h0a.723.723,0,0,0-.088.025l-.022.008a.725.725,0,0,0-.084.037h0a.723.723,0,0,0-.08.051l-.019.014a.731.731,0,0,0-.073.063L5.118,7.884a.716.716,0,0,0-.048.054c-.01.012-.019.025-.028.038l-.014.019c-.01.016-.02.032-.029.048l-.007.012c-.009.017-.017.034-.024.051l-.006.013c-.007.016-.012.033-.018.05l-.006.017c0,.015-.008.031-.012.046s0,.015-.005.022,0,.029-.006.043,0,.018,0,.027,0,.028,0,.042,0,.018,0,.027v.233a.725.725,0,0,0,.725.725h7.588a.725.725,0,0,0,.725-.725V1.449H25.3V9.963H14.223a.725.725,0,0,0-.725.725v7.97a.725.725,0,0,0,.725.725h14.42a.725.725,0,0,0,.725-.725v-7.97A.725.725,0,0,0,28.642,9.963ZM12.5,7.9H7.138L9.88,5.131,12.5,2.487V7.9ZM27.918,17.933H14.947V11.412H27.918Z" transform="translate(-4.908)" fill="#d85e2e"/>
    <path id="Path_1118" data-name="Path 1118" d="M248.835,254.2a.318.318,0,0,1,.353-.286h1.26a1.278,1.278,0,0,1,1.436,1.4v.03a1.316,1.316,0,0,1-1.5,1.412h-.6v1.315c0,.195-.237.292-.475.292s-.475-.1-.475-.292Zm.949.542v1.284h.6c.341,0,.548-.195.548-.609v-.067c0-.414-.207-.609-.548-.609Z" transform="translate(-236.955 -241.544)" fill="#d85e2e"/>
    <path id="Path_1119" data-name="Path 1119" d="M319.935,254.2a.318.318,0,0,1,.353-.286h1.26a1.278,1.278,0,0,1,1.436,1.4v.03a1.316,1.316,0,0,1-1.5,1.412h-.6v1.315c0,.195-.237.292-.475.292s-.475-.1-.475-.292V254.2Zm.949.542v1.284h.6c.341,0,.548-.195.548-.609v-.067c0-.414-.207-.609-.548-.609Z" transform="translate(-304.592 -241.544)" fill="#d85e2e"/>
    <path id="Path_1120" data-name="Path 1120" d="M388.2,253.911c.2,0,.286.219.286.42,0,.231-.1.432-.286.432h-.84v3.3c0,.195-.237.292-.475.292s-.475-.1-.475-.292v-3.3h-.84c-.183,0-.286-.2-.286-.432,0-.2.085-.42.286-.42Z" transform="translate(-366.757 -241.544)" fill="#d85e2e"/>
  </g>
</svg>
